<?xml version="1.0" encoding="UTF-8"?>
<svg xmlns="http://www.w3.org/2000/svg" viewBox="0 0 261.46 293.98" role="img" aria-label="L'Espoir asbl · SRG">
  <g fill="#E58346">
    <path d="M3.06,274.34c-2.01,0-3.06-.96-3.06-3.05v-51.06c0-2.09,1.05-3.05,3.06-3.05h3.93c2.01,0,3.06.96,3.06,3.05v44.43l20.51.96c2.09.09,3.05.96,3.05,3.05v3.93c0,2.01-.96,3.05-2.97,2.97l-27.58-1.22Z"/>
    <path d="M25.05,239.95c-1.31,0-2.01-.61-2.01-1.66v-2.27c0-1.13.61-2.01,1.75-2.09,4.1-.09,5.32-1.57,5.32-4.28v-.61c-3.93,0-6.72-2.62-6.72-6.55,0-3.49,2.88-6.46,6.55-6.46,4.02,0,7.24,3.23,7.24,9.78,0,8.55-3.58,14.14-12.13,14.14Z"/>
    <path d="M44.62,272.59l1.31-52.37c.09-2.09,1.05-3.05,3.06-3.05h28.8c2.09,0,3.05.96,3.05,3.05v3.93c0,2.01-.96,2.97-2.97,2.97h-22.34l-.35,14.4,19.11-.96c2.09-.17,3.05.96,3.05,3.05v3.93c0,2.01-.96,2.88-2.97,2.97l-19.46,1.05-.35,14.05h23.22c2.09,0,3.05,1.05,3.05,3.05v4.01c0,1.92-.96,2.97-2.97,2.97h-30.2c-2.01,0-3.05-1.05-3.05-3.05Z"/>
    <path d="M101.79,231.48c4.19,0,10.04,1.22,13.27,3.49,1.05.79.96,1.75.52,2.79l-1.92,4.28c-.44,1.05-1.48,1.48-2.44,1.13-3.67-1.48-7.07-2.44-10.3-2.44-3.58,0-5.41,1.31-5.41,3.67,0,7.33,21.91,3.23,21.91,18.5,0,9.34-7.42,13.7-16.41,13.7-4.98,0-11.17-1.57-14.93-4.36-1.05-.79-.87-1.66-.44-2.79l1.83-4.36c.44-1.13,1.4-1.66,2.44-1.13,3.4,1.83,7.77,3.14,11.7,3.14,4.19,0,6.46-1.13,6.46-3.4,0-7.33-21.99-3.49-21.99-19.03,0-7.59,5.5-13.18,15.71-13.18Z"/>
    <path d="M130.32,293.98h-3.49c-2.01,0-3.06-1.05-3.06-3.05v-56.73c0-2.09,1.05-3.05,3.06-3.05h3.49c2.09,0,3.05.96,3.05,3.05v3.84c3.23-3.75,7.85-5.59,12.66-5.59,9.95,0,17.98,8.73,17.98,22.26s-8.82,21.91-20.16,21.91c-3.4,0-6.98-.79-10.47-2.01v16.32c0,2.01-.96,3.05-3.05,3.05ZM154.41,254.7c0-7.59-4.54-12.22-10.3-12.22-6.11,0-10.74,4.71-10.74,11.96v9.6c3.23,1.75,6.72,2.53,10.47,2.53,6.11,0,10.56-3.84,10.56-11.87Z"/>
    <path d="M168.27,254.26c0-13.09,8.03-22.78,21.03-22.78s21.03,9.69,21.03,22.78-7.94,22.34-21.03,22.34-21.03-9.6-21.03-22.34ZM200.74,254.26c0-8.82-4.71-12.74-11.43-12.74s-11.43,3.84-11.43,12.74,4.8,12.31,11.43,12.31,11.43-3.75,11.43-12.31Z"/>
    <path d="M214.77,219.35c0-3.67,2.88-6.55,6.55-6.55s6.55,2.88,6.55,6.55-2.88,6.63-6.55,6.63-6.55-2.97-6.55-6.63ZM223.06,275.65h-3.49c-2.09,0-3.06-1.05-3.06-3.05v-35.79c0-2.09.96-3.05,3.06-3.05h3.49c2.01,0,3.05.96,3.05,3.05v35.79c0,2.01-1.05,3.05-3.05,3.05Z"/>
    <path d="M241.1,276.08h-3.49c-2.01,0-3.05-1.05-3.05-3.05v-41.46c0-2.09,1.05-3.06,3.05-3.06h3.49c2.09,0,3.06.96,3.06,3.06v6.37c2.79-4.1,6.98-6.46,11.43-6.46,1.92,0,4.02.44,5.15,1.13.61.35.79.87.7,1.57l-.87,7.68c-.17,1.22-.87,1.48-2.01,1.22-2.44-.52-4.1-.7-5.5-.7-5.06,0-8.9,4.01-8.9,10.65v19.99c0,2.01-.96,3.05-3.06,3.05Z"/>
    <path d="M201.75,110.67c1.05,0,2.67.37,3.42.86.2.12.27.32.17.54l-.54,1.1c-.1.2-.29.27-.49.2-.88-.37-1.88-.61-2.71-.61-1.37,0-2.08.51-2.08,1.39,0,2.35,6.33,1.52,6.33,5.65,0,2.05-1.64,3.35-4.43,3.35-1.2,0-2.96-.49-3.91-1.1-.2-.12-.27-.32-.17-.54l.54-1.1c.1-.22.27-.27.46-.17,1.13.56,2.27.83,3.23.83,1.54,0,2.32-.46,2.32-1.27,0-2.35-6.34-1.52-6.34-5.65,0-2.01,1.35-3.47,4.18-3.47Z"/>
    <path d="M209.54,123.14h-.49c-.49,0-.73-.24-.73-.73v-11.74c0-.49.24-.73.73-.73h.49c.49,0,.73.25.73.73v1.57c.76-.98,1.86-1.57,3.18-1.57.56,0,1.15.15,1.47.32.17.1.2.2.17.42l-.24,1.52c-.05.29-.22.32-.46.27-.68-.12-1.12-.2-1.49-.2-1.49,0-2.62,1.25-2.62,2.96v6.46c0,.49-.24.73-.73.73Z"/>
    <path d="M217.57,127.01c-.22-.12-.29-.32-.2-.54l.44-1.1c.07-.2.24-.27.44-.17.66.34,2.3.76,3.6.76,1.76,0,3.08-.59,3.08-3.38v-1.42c-.93,1.17-2.3,1.74-3.67,1.74-2.74,0-4.92-2.45-4.92-6.24s2.27-5.99,5.16-5.99c1.08,0,2.3.32,3.42.83v-.83c0-.49.24-.73.73-.73h.49c.49,0,.73.25.73.73v12.25c0,3.84-2.2,5.11-4.99,5.11-1.74,0-3.47-.51-4.33-1.03ZM224.93,117.37v-3.57c-1.05-.71-2.25-1.05-3.42-1.05-1.83,0-3.2,1.27-3.2,3.91s1.59,4.16,3.35,4.16,3.28-1.49,3.28-3.45Z"/>
    <path d="M202.74,83.18c3.68,3,4.42,6.85,2.99,10.49-1.33,3.4-4.94,4.8-8.96,4.98l-8.23.38.03,38.14c3.1-1.56,5.7-2.88,7.9-3.65,6.04-2.1,8.14,2.6,11.74,5.26,1.79,1.33,5.77,2.28,6.75,3.99,1.16,2.04,2.11,6.52.7,8.91-17.21,29.3-46.8,48.7-80.9,52.13-36.14,3.63-70.8-12.04-93.01-40.55-21.63-27.78-27.07-64.6-14.36-97.46C41.64,28.93,71.91,5.34,111.09.08c4.29-.57,8.3,1.89,9.52,5.32,1.15,3.25.19,8.09-3.3,10.28-7.01,4.4-21.07,5.84-30.07,11.95,20.24,6.9-3.82,16.96-4.65,32.29l34.73-28.35c6.75-5.51,14.96-5.78,21.84-.18l63.59,51.78ZM104.79,157.22c-6.47,5.45-14.93,7.41-23.05,4.4-6.36-2.36-13.39-8.74-13.45-17l-.31-45.86-8.7-.09c-3.58-.04-7.07-2.11-8.24-4.85-1.54-3.63-.67-7.58,2.21-10l15.8-13.24c6.34-5.31,8.34-24.51,20.14-35.43-3.97-2.01-7.81-.38-10.92,2.07-11.2,8.83-10.83,18.33-16.1,17.44-1.07-.18-2.28-3.08-1.81-4.28,8.49-22.01,27.35-32.05,48.97-37.7,2.59-.68,5.15-2.41,5.09-5.44-4.42-1.21-9.06-.18-13.61.9-27.43,6.5-49.52,24.17-62.5,48.95-16.69,31.86-14.87,69.31,5.92,98.8s51.94,43.73,86.25,41.91c32.45-1.72,63.86-20.5,79.44-49.84.41-.76-2.79-2.62-3.44-2.04-.52.46-2.05,1.54-2.68,2.43-10.3,14.42-24.48,27.98-42,33.78-1.42.47-4.11-1.05-4.13-2.22-.01-.98,1.2-3.19,2.16-3.55,19.36-7.32,29.9-19.28,41.89-35.39-2.61-2-5.85-1.36-7.9.68l-12.52,12.51c-17.81,17.8-49.28,18.69-49.65,9.31-.44-11.14,28.65-5.89,30.83-22.28-26.54,12.25-37.32-1.13-57.71,16.06ZM166.59,136.2c4.55,3.87,1.47,14.51-6.81,19.1-5.49,3.04-12.13,5.48-17.55,7.3,13.66,1.1,33-6.01,38.8-19,3.79-15.52-.89-31.97,1.53-47.32.5-3.14,4.27-4.18,7.05-4.32l10.88-.53c-2.25-3.54-3.38-4.54-5.87-6.57l-60.17-48.9c-3.67-2.98-8.41-3.1-12.09-.09l-66.69,54.59c3.05,3.61,18.78-1.84,18.8,6.45l.14,45.65c.02,5.95,4.3,11.1,8.42,12.82,15.91,6.66,19.76-13.74,40.31-13.83,38.33-.15,37.09-10.58,43.23-5.35Z"/>
    <path d="M196.23,48.75c-4.64,0-8.84-1.19-12.7-3.58-5.12-3.17-9.22-9.55-10.71-16.64-1.71-8.16,1.52-16.66,8.64-22.74,6.37-5.44,15.35-6.99,24.01-4.15,7.54,2.47,13,9.5,14.59,18.8,2.22,12.91-3.97,24.03-15.03,27.05-3.1.85-6.03,1.27-8.8,1.27ZM196.91,6.71c-4.22,0-8.18,1.37-11.25,3.99-5.29,4.52-7.73,10.69-6.51,16.5,1.12,5.34,4.17,10.24,7.78,12.47,4.69,2.9,9.74,3.39,16.39,1.57,9.02-2.46,11.69-11.95,10.36-19.72h0c-1.18-6.89-5.01-12.03-10.23-13.74-2.19-.72-4.4-1.07-6.54-1.07Z"/>
    <path d="M131.04,119.84c0-1.06-.88-1.77-1.64-1.79s-1.7.71-1.7,1.61l-.02,22.89c0,2.57-2.16,4.59-4.45,4.63-2.64.05-4.83-1.87-4.83-4.63l-.04-44.78c-3.35,2.28-6.31,5.19-6.32,9.14l-.02,42.42c0,2.56-2.07,4.55-4.39,4.67s-4.86-1.56-4.89-4.09l-.12-17.98c-.01-.94-.68-1.78-1.48-1.84-1-.08-1.82.75-1.83,1.83l-.08,25.13c-.02,2.5-2.65,4.24-4.87,4.09-2.33-.16-4.43-2.09-4.44-4.62l-.06-46.77c-1.53,2.48-2.55,5.05-3.49,7.83-.71,2.11-2.96,3.21-4.86,2.47-2.12-.83-2.91-3.02-2.15-5.14,3.48-9.74,8.11-19.14,20.23-18.92,3.3.06,6.71-.13,9.74-1.59,8.34-4.04,9.16-9.73,19.92-9.72,9,.01,10.31,3.24,17.32,8.14,3.47,2.42,7.62,3.34,11.86,3.15,7.06-.31,13.02,3.03,16.53,9.12,1.8,3.13,3.12,6.44,4.39,9.88.76,2.06.03,4.07-1.88,4.98s-4.23,0-5.02-2.14c-1.03-2.81-1.96-5.49-3.68-8.17l-.08,32.03c0,1.12-9.25-1.61-9.28-2.1l-.03-12.48c0-.64-.93-1.44-1.46-1.5-.72-.08-1.8.64-1.8,1.49l.03,12.18c0,2.64-1.88,4.75-4.4,4.93-2.52.18-5.07-1.84-5.07-4.62l-.02-32.02c0-5.09-2.73-6.84-6.33-10.03v45.02c0,2.61-2.13,4.56-4.47,4.64-2.53.09-4.81-1.93-4.82-4.62l-.02-22.72Z"/>
    <path d="M127.32,66.76c4.28-1.21,8.44,1.42,9.45,5.5.99,3.98-1.29,8.25-5.42,9.33s-8.03-1.2-9.28-5.08.83-8.49,5.24-9.74Z"/>
    <path d="M98.77,78.18c4.25-1.23,8.48,1.44,9.42,5.47s-1.29,8.12-5.23,9.2c-4.09,1.13-8.29-1.13-9.44-5.23-1.1-3.88.87-8.18,5.25-9.44Z"/>
    <path d="M159.53,92.96c-4.45.91-8.31-2.02-9.08-6.14s1.94-8.22,6.39-8.86c4.15-.6,7.92,2.24,8.56,6.3.6,3.77-1.6,7.82-5.88,8.7Z"/>
  </g>
</svg>
