<?xml version="1.0" encoding="UTF-8"?>
<svg xmlns="http://www.w3.org/2000/svg" viewBox="0 0 400 400">
  <rect width="400" height="400" fill="#002626"/>
  <g fill="#8BAD3B" transform="translate(36 31)">
    <path d="M310.17,229.47c-5.94-4.39-9.41-12.17-19.41-8.69-3.64,1.26-7.93,3.46-13.06,6.03l-.06-63.07,13.61-.62c6.64-.3,12.61-2.61,14.81-8.23,2.36-6.02,1.14-12.4-4.95-17.35l-105.14-85.62c-11.37-9.26-24.95-8.81-36.11.3l-57.43,46.88c1.39-25.35,41.16-41.99,7.7-53.39,14.88-10.11,38.13-12.49,49.72-19.76,5.77-3.62,7.36-11.62,5.45-16.99-2.02-5.67-8.65-9.75-15.74-8.8C84.79,8.82,34.74,47.84,11.18,108.8c-21,54.33-12.02,115.22,23.75,161.15,36.72,47.15,94.03,73.06,153.79,67.05,56.39-5.67,105.31-37.75,133.77-86.19,2.33-3.96.77-11.36-1.16-14.74-1.61-2.82-8.19-4.41-11.16-6.6ZM168.22,59.29c6.07-4.97,13.92-4.77,19.98.15l99.49,80.86c4.12,3.35,5.99,5.01,9.71,10.87l-17.99.88c-4.61.23-10.85,1.95-11.67,7.14-4.01,25.39,3.72,52.58-2.54,78.25-9.58,21.47-41.57,33.23-64.15,31.41,8.96-3.01,19.94-7.04,29.02-12.07,9.2-5.09,14.51-14.69,14.73-22.39.03-.05.05-.1.05-.16l.13-52.96c2.84,4.44,4.37,8.87,6.08,13.51,1.3,3.54,5.22,5.01,8.3,3.54,3.15-1.51,4.36-4.83,3.1-8.23-2.1-5.69-4.29-11.15-7.27-16.33-5.79-10.08-15.64-15.6-27.32-15.09-7.01.31-13.87-1.21-19.6-5.22-11.61-8.12-13.76-13.45-28.65-13.46-17.79-.02-19.15,9.39-32.94,16.07-5.01,2.43-10.65,2.73-16.11,2.63-20.05-.36-27.7,15.18-33.45,31.28-1.25,3.5.06,7.13,3.56,8.5,3.14,1.23,6.86-.59,8.04-4.08,1.56-4.6,3.24-8.84,5.78-12.95l.1,77.34c0,.09.01.19.02.28-3.42.23-7.15-.38-11.41-2.16-6.82-2.86-13.89-11.37-13.92-21.21l-.24-75.48c-.04-13.72-26.04-4.71-31.09-10.67l110.27-90.26ZM229.49,224.73c-1.51.61-3.27,1.33-5.39,2.09l-.04-16.7c0-1.4,1.78-2.6,2.98-2.47.88.1,2.41,1.42,2.42,2.48l.04,14.6ZM208.45,230.96c-3.11.58-6.59,1.12-10.52,1.57v-71.28c5.97,5.28,10.47,8.17,10.47,16.58l.04,52.95c0,.06,0,.12.01.18ZM182.59,233.74c-1.79.08-3.65.15-5.58.2l.02-36.07c0-1.49,1.56-2.69,2.81-2.66,1.26.03,2.72,1.21,2.72,2.96l.03,35.57ZM161.67,234.78c-3.88.7-7.35,1.86-10.53,3.3l.02-61.32c0-6.53,4.91-11.35,10.44-15.11l.06,73.13ZM135.8,247.99c-1.97,1.53-3.88,3.04-5.79,4.42l.1-34.29c.02-1.79,1.37-3.17,3.03-3.03,1.32.11,2.43,1.5,2.45,3.05l.19,29.72s0,.09.01.13ZM313,244.61c-25.76,48.5-77.7,79.55-131.35,82.4-56.74,3.01-109.81-22.76-142.62-69.29C4.64,208.96,1.63,147.05,29.23,94.36,50.69,53.4,87.22,24.17,132.58,13.43c7.52-1.78,15.19-3.48,22.5-1.49.09,5-4.13,7.87-8.42,8.99-35.75,9.33-66.93,25.95-80.97,62.34-.77,1.99,1.22,6.77,3,7.07,8.71,1.48,8.1-14.22,26.62-28.83,5.14-4.05,11.49-6.75,18.06-3.42-19.52,18.06-22.83,49.81-33.31,58.59l-26.13,21.89c-4.77,4-6.21,10.53-3.66,16.54,1.93,4.53,7.7,7.96,13.62,8.02l14.39.15.51,75.84c.09,13.65,11.73,24.21,22.24,28.11,13.43,4.98,27.43,1.73,38.12-7.28,33.71-28.41,51.53-6.29,95.42-26.55-3.62,27.1-51.71,18.43-50.98,36.84.61,15.51,52.65,14.04,82.1-15.39l20.7-20.69c3.38-3.38,8.75-4.43,13.06-1.13-19.83,26.65-37.26,46.42-69.27,58.52-1.59.6-3.59,4.26-3.57,5.87.02,1.94,4.47,4.46,6.82,3.68,28.98-9.6,52.43-32.02,69.45-55.86,1.05-1.47,3.58-3.25,4.44-4.01,1.08-.96,6.36,2.1,5.69,3.37Z"/>
    <path d="M305.62,2.7c-14.33-4.7-29.17-2.14-39.71,6.86-11.77,10.05-17.11,24.11-14.29,37.61,2.46,11.73,9.24,22.28,17.71,27.52,6.39,3.96,13.34,5.93,21.01,5.93,4.58,0,9.42-.7,14.55-2.1,18.3-5,28.52-23.39,24.86-44.73-2.64-15.37-11.66-26.99-24.13-31.08ZM302.07,68.19c-11,3-19.35,2.2-27.11-2.6-5.97-3.7-11.02-11.79-12.87-20.62-2.01-9.61,2.01-19.81,10.76-27.28,5.09-4.35,11.64-6.6,18.61-6.6,3.54,0,7.19.58,10.82,1.77,8.64,2.83,14.96,11.33,16.92,22.73,2.2,12.85-2.22,28.53-17.13,32.61Z"/>
    <path d="M183.07,134.9c6.83-1.79,10.58-8.84,8.95-15.42-1.67-6.74-8.55-11.08-15.62-9.09-7.31,2.06-10.81,9.44-8.67,16.1,2.07,6.43,8.83,10.11,15.34,8.41Z"/>
    <path d="M136.13,153.53c6.51-1.79,10.18-8.68,8.65-15.22-1.56-6.67-8.55-11.07-15.58-9.05-7.23,2.08-10.49,9.2-8.68,15.61,1.91,6.78,8.85,10.51,15.61,8.65Z"/>
    <path d="M229.67,153.71c7.08-1.45,10.71-8.15,9.72-14.38-1.06-6.71-7.28-11.41-14.15-10.42-7.36,1.06-11.83,7.86-10.57,14.66,1.26,6.82,7.65,11.66,15.01,10.15Z"/>
  </g>
</svg>
