<?xml version="1.0" encoding="UTF-8"?>
<svg id="Ebene_2" data-name="Ebene 2" xmlns="http://www.w3.org/2000/svg" viewBox="0 0 901.49 337.85">
  <g id="Ebene_2-2" data-name="Ebene 2">
    <g>
      <path d="M447.05,194.04l-33.92-1.59v-73.46c0-3.46-1.73-5.05-5.05-5.05h-6.49c-3.32,0-5.05,1.59-5.05,5.05v84.43c0,3.46,1.73,5.05,5.05,5.05l45.6,2.02c3.32.14,4.91-1.59,4.91-4.91v-6.5c0-3.46-1.59-4.91-5.05-5.05Z" style="fill: #002626;"/>
      <path d="M446.04,112.07c-6.06,0-10.82,4.91-10.82,10.68,0,6.49,4.62,10.82,11.11,10.82v1.01c0,4.47-2.02,6.93-8.8,7.07-1.88.14-2.89,1.59-2.89,3.46v3.75c0,1.73,1.15,2.74,3.32,2.74,14.14,0,20.06-9.24,20.06-23.38,0-10.82-5.34-16.16-11.98-16.16Z" style="fill: #002626;"/>
      <path d="M525.15,113.94h-47.62c-3.32,0-4.91,1.59-5.05,5.05l-2.17,86.59c0,3.32,1.73,5.05,5.05,5.05h49.93c3.32,0,4.91-1.73,4.91-4.91v-6.64c0-3.32-1.59-5.05-5.05-5.05h-38.39l.58-23.24,32.18-1.73c3.32-.14,4.91-1.59,4.91-4.91v-6.49c0-3.46-1.59-5.34-5.05-5.05l-31.61,1.59.58-23.81h36.95c3.32,0,4.91-1.59,4.91-4.91v-6.49c0-3.46-1.59-5.05-5.05-5.05Z" style="fill: #002626;"/>
      <path d="M554.46,158.97c0-3.9,3.03-6.06,8.95-6.06,5.34,0,10.97,1.59,17.03,4.04,1.59.58,3.32-.14,4.04-1.88l3.18-7.07c.72-1.73.87-3.32-.87-4.62-5.34-3.75-15.01-5.77-21.94-5.77-16.88,0-25.98,9.24-25.98,21.79,0,25.69,36.37,19.34,36.37,31.46,0,3.75-3.75,5.63-10.68,5.63-6.5,0-13.71-2.16-19.34-5.2-1.73-.87-3.32,0-4.04,1.88l-3.03,7.22c-.72,1.88-1.01,3.32.72,4.62,6.21,4.62,16.45,7.22,24.68,7.22,14.87,0,27.13-7.22,27.13-22.66,0-25.26-36.22-18.47-36.22-30.6Z" style="fill: #002626;"/>
      <path d="M637.99,139.2c-7.94,0-15.59,3.03-20.93,9.24v-6.35c0-3.46-1.59-5.05-5.05-5.05h-5.77c-3.32,0-5.05,1.59-5.05,5.05v93.81c0,3.32,1.73,5.05,5.05,5.05h5.77c3.46,0,5.05-1.73,5.05-5.05v-26.99c5.77,2.02,11.69,3.32,17.32,3.32,18.76,0,33.34-14,33.34-36.22s-13.28-36.8-29.73-36.8ZM634.38,195.63c-6.21,0-11.98-1.3-17.32-4.19v-15.88c0-11.98,7.65-19.77,17.75-19.77,9.53,0,17.03,7.65,17.03,20.21,0,13.28-7.36,19.63-17.46,19.63Z" style="fill: #002626;"/>
      <path d="M709.56,137.61c-21.5,0-34.78,16.02-34.78,37.67s13.28,36.95,34.78,36.95,34.78-15.88,34.78-36.95-13.13-37.67-34.78-37.67ZM709.56,195.63c-10.97,0-18.91-6.21-18.91-20.35s7.94-21.07,18.91-21.07,18.91,6.49,18.91,21.07-7.79,20.35-18.91,20.35Z" style="fill: #002626;"/>
      <path d="M762.48,106.73c-6.06,0-10.82,4.76-10.82,10.82s4.76,10.97,10.82,10.97,10.82-4.91,10.82-10.97-4.91-10.82-10.82-10.82Z" style="fill: #002626;"/>
      <path d="M765.36,141.36h-5.77c-3.46,0-5.05,1.59-5.05,5.05v59.17c0,3.32,1.59,5.05,5.05,5.05h5.77c3.32,0,5.05-1.73,5.05-5.05v-59.17c0-3.46-1.73-5.05-5.05-5.05Z" style="fill: #002626;"/>
      <path d="M827.37,154.78l1.44-12.7c.14-1.15-.14-2.02-1.16-2.6-1.88-1.15-5.34-1.88-8.51-1.88-7.36,0-14.29,3.9-18.91,10.68v-10.54c0-3.46-1.59-5.05-5.05-5.05h-5.77c-3.32,0-5.05,1.59-5.05,5.05v68.55c0,3.32,1.73,5.05,5.05,5.05h5.77c3.46,0,5.05-1.73,5.05-5.05v-33.05c0-10.97,6.35-17.61,14.72-17.61,2.31,0,5.05.29,9.09,1.16,1.88.43,3.03,0,3.32-2.02Z" style="fill: #002626;"/>
      <path d="M828.21,181.21c-3.87,0-7.36,1.22-9.63,2.77-.39.28-.55.72-.33,1.22.11.28.28.55.39.83l.83,1.66c.22.44.61.61,1.05.33,2.16-1.33,4.65-2.1,6.8-2.1,4.65,0,7.41,2.54,7.41,7.52v.5c-2.38-1-5.2-1.44-7.69-1.44-6.92,0-9.63,3.93-9.63,8.47,0,4.81,3.43,8.52,8.52,8.96.33.06.72.06,1.11.06,3.04,0,5.87-1.11,7.69-2.88v2.32c0,.72.39,1.11,1.11,1.11h2.21c.72,0,1.11-.39,1.11-1.11v-16.21c0-7.97-4.21-12.01-10.96-12.01ZM834.74,200.64c0,2.43-3.43,4.65-7.41,4.65-2.93,0-5.48-1.66-5.48-4.54,0-2.32,1.83-3.82,5.48-3.82,2.27,0,5.09.5,7.41,1.38v2.32Z" style="fill: #002626;"/>
      <path d="M848.62,189.62c0-1.99,1.6-3.15,4.7-3.15,1.88,0,4.15.55,6.14,1.38.44.17.88,0,1.11-.44l1.22-2.49c.22-.5.05-.94-.39-1.22-1.71-1.11-5.37-1.94-7.75-1.94-6.42,0-9.46,3.32-9.46,7.86,0,9.35,14.33,7.47,14.33,12.78,0,1.83-1.77,2.88-5.26,2.88-2.16,0-4.76-.61-7.3-1.88-.44-.22-.83-.11-1.05.39l-1.22,2.49c-.22.5-.06.94.39,1.22,2.16,1.38,6.14,2.49,8.85,2.49,6.31,0,10.01-2.93,10.01-7.58,0-9.35-14.33-7.47-14.33-12.78Z" style="fill: #002626;"/>
      <path d="M880.71,181.77c-3.1,0-6.2,1.27-8.3,3.93v-14.44c0-1.11-.55-1.66-1.66-1.66h-1.11c-1.11,0-1.66.55-1.66,1.66v37.07c0,1.11.55,1.66,1.66,1.66h1.11c1.11,0,1.66-.55,1.66-1.66v-.77c2.54,1.16,5.31,1.88,7.75,1.88,6.53,0,11.67-5.26,11.67-13.56,0-9.46-4.92-14.11-11.12-14.11ZM880.16,204.73c-2.66,0-5.37-.77-7.75-2.38v-8.08c0-4.43,3.54-7.8,7.41-7.8,4.26,0,7.58,3.1,7.58,9.41,0,5.98-3.1,8.85-7.25,8.85Z" style="fill: #002626;"/>
      <path d="M898.73,169.6h1.11c.92,0,1.66.74,1.66,1.66v36.52c0,.92-.74,1.66-1.66,1.66h-1.11c-.92,0-1.66-.74-1.66-1.66v-36.52c0-.92.74-1.66,1.66-1.66Z" style="fill: #002626;"/>
      <path d="M310.17,229.47c-5.94-4.39-9.41-12.17-19.41-8.69-3.64,1.26-7.93,3.46-13.06,6.03l-.06-63.07,13.61-.62c6.64-.3,12.61-2.61,14.81-8.23,2.36-6.02,1.14-12.4-4.95-17.35l-105.14-85.62c-11.37-9.26-24.95-8.81-36.11.3l-57.43,46.88c1.39-25.35,41.16-41.99,7.7-53.39,14.88-10.11,38.13-12.49,49.72-19.76,5.77-3.62,7.36-11.62,5.45-16.99-2.02-5.67-8.65-9.75-15.74-8.8C84.79,8.82,34.74,47.84,11.18,108.8c-21,54.33-12.02,115.22,23.75,161.15,36.72,47.15,94.03,73.06,153.79,67.05,56.39-5.67,105.31-37.75,133.77-86.19,2.33-3.96.77-11.36-1.16-14.74-1.61-2.82-8.19-4.41-11.16-6.6ZM168.22,59.29c6.07-4.97,13.92-4.77,19.98.15l99.49,80.86c4.12,3.35,5.99,5.01,9.71,10.87l-17.99.88c-4.61.23-10.85,1.95-11.67,7.14-4.01,25.39,3.72,52.58-2.54,78.25-9.58,21.47-41.57,33.23-64.15,31.41,8.96-3.01,19.94-7.04,29.02-12.07,9.2-5.09,14.51-14.69,14.73-22.39.03-.05.05-.1.05-.16l.13-52.96c2.84,4.44,4.37,8.87,6.08,13.51,1.3,3.54,5.22,5.01,8.3,3.54,3.15-1.51,4.36-4.83,3.1-8.23-2.1-5.69-4.29-11.15-7.27-16.33-5.79-10.08-15.64-15.6-27.32-15.09-7.01.31-13.87-1.21-19.6-5.22-11.61-8.12-13.76-13.45-28.65-13.46-17.79-.02-19.15,9.39-32.94,16.07-5.01,2.43-10.65,2.73-16.11,2.63-20.05-.36-27.7,15.18-33.45,31.28-1.25,3.5.06,7.13,3.56,8.5,3.14,1.23,6.86-.59,8.04-4.08,1.56-4.6,3.24-8.84,5.78-12.95l.1,77.34c0,.09.01.19.02.28-3.42.23-7.15-.38-11.41-2.16-6.82-2.86-13.89-11.37-13.92-21.21l-.24-75.48c-.04-13.72-26.04-4.71-31.09-10.67l110.27-90.26ZM229.49,224.73c-1.51.61-3.27,1.33-5.39,2.09l-.04-16.7c0-1.4,1.78-2.6,2.98-2.47.88.1,2.41,1.42,2.42,2.48l.04,14.6ZM208.45,230.96c-3.11.58-6.59,1.12-10.52,1.57v-71.28c5.97,5.28,10.47,8.17,10.47,16.58l.04,52.95c0,.06,0,.12.01.18ZM182.59,233.74c-1.79.08-3.65.15-5.58.2l.02-36.07c0-1.49,1.56-2.69,2.81-2.66,1.26.03,2.72,1.21,2.72,2.96l.03,35.57ZM161.67,234.78c-3.88.7-7.35,1.86-10.53,3.3l.02-61.32c0-6.53,4.91-11.35,10.44-15.11l.06,73.13ZM135.8,247.99c-1.97,1.53-3.88,3.04-5.79,4.42l.1-34.29c.02-1.79,1.37-3.17,3.03-3.03,1.32.11,2.43,1.5,2.45,3.05l.19,29.72s0,.09.01.13ZM313,244.61c-25.76,48.5-77.7,79.55-131.35,82.4-56.74,3.01-109.81-22.76-142.62-69.29C4.64,208.96,1.63,147.05,29.23,94.36,50.69,53.4,87.22,24.17,132.58,13.43c7.52-1.78,15.19-3.48,22.5-1.49.09,5-4.13,7.87-8.42,8.99-35.75,9.33-66.93,25.95-80.97,62.34-.77,1.99,1.22,6.77,3,7.07,8.71,1.48,8.1-14.22,26.62-28.83,5.14-4.05,11.49-6.75,18.06-3.42-19.52,18.06-22.83,49.81-33.31,58.59l-26.13,21.89c-4.77,4-6.21,10.53-3.66,16.54,1.93,4.53,7.7,7.96,13.62,8.02l14.39.15.51,75.84c.09,13.65,11.73,24.21,22.24,28.11,13.43,4.98,27.43,1.73,38.12-7.28,33.71-28.41,51.53-6.29,95.42-26.55-3.62,27.1-51.71,18.43-50.98,36.84.61,15.51,52.65,14.04,82.1-15.39l20.7-20.69c3.38-3.38,8.75-4.43,13.06-1.13-19.83,26.65-37.26,46.42-69.27,58.52-1.59.6-3.59,4.26-3.57,5.87.02,1.94,4.47,4.46,6.82,3.68,28.98-9.6,52.43-32.02,69.45-55.86,1.05-1.47,3.58-3.25,4.44-4.01,1.08-.96,6.36,2.1,5.69,3.37Z" style="fill: #002626;"/>
      <path d="M305.62,2.7c-14.33-4.7-29.17-2.14-39.71,6.86-11.77,10.05-17.11,24.11-14.29,37.61,2.46,11.73,9.24,22.28,17.71,27.52,6.39,3.96,13.34,5.93,21.01,5.93,4.58,0,9.42-.7,14.55-2.1,18.3-5,28.52-23.39,24.86-44.73-2.64-15.37-11.66-26.99-24.13-31.08ZM302.07,68.19c-11,3-19.35,2.2-27.11-2.6-5.97-3.7-11.02-11.79-12.87-20.62-2.01-9.61,2.01-19.81,10.76-27.28,5.09-4.35,11.64-6.6,18.61-6.6,3.54,0,7.19.58,10.82,1.77,8.64,2.83,14.96,11.33,16.92,22.73,2.2,12.85-2.22,28.53-17.13,32.61Z" style="fill: #002626;"/>
      <path d="M183.07,134.9c6.83-1.79,10.58-8.84,8.95-15.42-1.67-6.74-8.55-11.08-15.62-9.09-7.31,2.06-10.81,9.44-8.67,16.1,2.07,6.43,8.83,10.11,15.34,8.41Z" style="fill: #002626;"/>
      <path d="M136.13,153.53c6.51-1.79,10.18-8.68,8.65-15.22-1.56-6.67-8.55-11.07-15.58-9.05-7.23,2.08-10.49,9.2-8.68,15.61,1.91,6.78,8.85,10.51,15.61,8.65Z" style="fill: #002626;"/>
      <path d="M229.67,153.71c7.08-1.45,10.71-8.15,9.72-14.38-1.06-6.71-7.28-11.41-14.15-10.42-7.36,1.06-11.83,7.86-10.57,14.66,1.26,6.82,7.65,11.66,15.01,10.15Z" style="fill: #002626;"/>
    </g>
  </g>
</svg>
